<?xml version="1.0" encoding="UTF-8" standalone="no"?><!DOCTYPE svg PUBLIC "-//W3C//DTD SVG 1.1//EN" "http://www.w3.org/Graphics/SVG/1.1/DTD/svg11.dtd"><svg width="100%" height="100%" viewBox="0 0 44 44" version="1.1" xmlns="http://www.w3.org/2000/svg" xmlns:xlink="http://www.w3.org/1999/xlink" xml:space="preserve" xmlns:serif="http://www.serif.com/" style="fill-rule:evenodd;clip-rule:evenodd;stroke-linecap:round;stroke-linejoin:round;stroke-miterlimit:2;"><rect id="cracked-tooth" serif:id="cracked tooth" x="0" y="0" width="43.68" height="43.68" style="fill:none;"/><g><path d="M24.86,8.115c-4.19,0.494 -9.725,-3.65 -13.871,-1.644c-8.448,4.087 0.491,15.14 0.477,17.985c-0.02,3.961 0.035,10.173 2.742,13.117c1.913,2.082 3.281,0.411 2.982,-2.339c-0.229,-2.102 -0.849,-4.726 0.278,-6.88c1.312,-2.508 3.429,-2.982 5.961,-2.096c5.806,2.031 0.733,10.357 3.192,12.264c5.361,-0.412 5.146,-9.467 5.219,-13.789c0.026,-1.592 2.076,-4.065 2.751,-6.027c1.828,-5.313 3.693,-10.305 -2.786,-12.293c-2.282,-0.7 -4.444,-0.174 -6.945,1.702Z" style="fill:none;stroke:#1a1a1a;stroke-width:1.44px;"/><path d="M21.131,21.179l3.615,-3.612l-4.795,-4.664l4.781,-4.804" style="fill:none;stroke:#1a1a1a;stroke-width:1.44px;"/></g></svg>